<svg xmlns="http://www.w3.org/2000/svg" width="64" height="64" shape-rendering="geometricPrecision" text-rendering="geometricPrecision" image-rendering="optimizeQuality" fill-rule="evenodd" clip-rule="evenodd" viewBox="0 0 640 640"><path d="M-.012 636.22L0 533.994c54.71-24.331 222.133-70.63 230.034-137.576 1.795-15.118-33.863-72.71-42.024-100.336-17.48-27.874-23.752-72.13-4.618-101.588 7.606-11.705 4.358-54.379 4.358-70.49 0-160.265 280.834-160.324 280.834 0 0 20.28-4.665 57.521 6.343 73.455 18.425 26.646 8.905 73.89-6.603 98.623-9.945 29.032-47.811 83.895-44.575 100.336C435.773 457.564 591.1 498.644 640.012 520.4L640 636.209l-640.012.012z"/></svg>